# AST/ASF file generated using VICON BodyLanguage
# -----------------------------------------------
:version 1.10
:name VICON
:units
  mass 1.0
  length 0.45
  angle deg
:documentation
   .ast/.asf automatically generated from VICON data using
   VICON BodyBuilder and BodyLanguage model FoxedUp or BRILLIANT.MOD
:root
   order TX TY TZ RX RY RZ
   axis XYZ
   position 0 0 0  
   orientation 0 0 0 
:bonedata
  begin
     id 1 
     name lhipjoint
     direction 0.635376 -0.686425 0.353719 
     length 2.47244 
     axis 0 0 0  XYZ
  end
  begin
     id 2 
     name lfemur
     direction 0.34202 -0.939693 0  
     length 7.25268  
     axis 0 0 20  XYZ
    dof rx ry rz
    limits (-160.0 20.0)
           (-70.0 70.0)
           (-60.0 70.0)
  end
  begin
     id 3 
     name ltibia
     direction 0.34202 -0.939693 0   
     length 7.6767   
     axis 0 0 20   XYZ
    dof rx
    limits (-10.0 170.0)
  end
  begin
     id 4 
     name lfoot
     direction 0.0803374 -0.220725 0.972022   
     length 2.22945   
     axis -90 7.62852e-016 20   XYZ
    dof rx rz
    limits (-45.0 90.0)
           (-70.0 20.0)
  end
  begin
     id 5 
     name ltoes
     direction 1.53579e-011 -4.21994e-011 1   
     length 1.11848   
     axis -90 7.62852e-016 20   XYZ
    dof rx
    limits (-90.0 20.0)
  end
  begin
     id 6 
     name rhipjoint
     direction -0.664428 -0.664335 0.342336   
     length 2.55466  
     axis 0 0 0  XYZ 
  end
  begin
     id 7 
     name rfemur
     direction -0.34202 -0.939693 0   
     length 6.83172   
     axis 0 0 -20   XYZ
    dof rx ry rz
    limits (-160.0 20.0)
           (-70.0 70.0)
           (-70.0 60.0)
  end
  begin
     id 8 
     name rtibia
     direction -0.34202 -0.939693 0   
     length 7.62692   
     axis 0 0 -20   XYZ
    dof rx
    limits (-10.0 170.0)
 end
 begin
     id 9 
     name rfoot
     direction -0.0949276 -0.260811 0.960711   
     length 2.19684  
     axis -90 -7.62852e-016 -20   XYZ
    dof rx rz
    limits (-45.0 90.0)
           (-20.0 70.0)
  end
  begin
     id 10 
     name rtoes
     direction -1.53543e-011 -4.2183e-011 1   
     length 1.09848   
     axis -90 -7.62852e-016 -20   XYZ
    dof rx
    limits (-90.0 20.0)
  end
  begin
     id 11 
     name lowerback
     direction 0.0118782 0.999815 -0.0151555   
     length 2.15772   
     axis 0 0 0   XYZ
    dof rx ry rz
    limits (-20.0 45.0)
           (-30.0 30.0)
           (-30.0 30.0)
  end
  begin
     id 12 
     name upperback
     direction 0.00130825 0.999065 0.0432113   
     length 2.14863   
     axis 0 0 0   XYZ
    dof rx ry rz
    limits (-20.0 45.0)
           (-30.0 30.0)
           (-30.0 30.0)
  end
  begin
     id 13 
     name thorax
     direction -0.00347005 0.998773 0.0494011   
     length 2.14936   
     axis 0 0 0   XYZ
    dof rx ry rz
    limits (-20.0 45.0)
           (-30.0 30.0)
           (-30.0 30.0)
  end
  begin
     id 14 
     name lowerneck
     direction -0.0262159 0.99424 0.103921   
     length 1.69373   
     axis 0 0 0   XYZ
    dof rx ry rz
    limits (-20.0 45.0)
           (-30.0 30.0)
           (-30.0 30.0)
  end
  begin
     id 15 
     name upperneck
     direction 0.0353511 0.977394 -0.20845   
     length 1.70857   
     axis 0 0 0   XYZ
    dof rx ry rz
    limits (-20.0 45.0)
           (-30.0 30.0)
           (-30.0 30.0)
  end
  begin
     id 16
     name head
     direction 0.0139214 0.996594 -0.0812836  
     length 1.72777  
     axis 0 0 0   XYZ
    dof rx ry rz
    limits (-20.0 45.0)
           (-30.0 30.0)
           (-30.0 30.0)
  end
  begin
     id 17 
     name lclavicle
     direction 0.841247 0.537205 -0.0609508  
     length 3.55371  
     axis 0 0 0   XYZ
    dof ry rz
    limits (-20.0 10.0)
           (0.0 20.0)
  end
  begin
     id 18 
     name lhumerus
     direction 1 -4.48964e-011 1.60116e-018   
     length 4.91377   
     axis -180 -30 -90   XYZ
    dof rx ry rz
    limits (-60.0 90.0)
           (-90.0 90.0)
           (-90.0 90.0)
  end
  begin
     id 19
     name lradius
     direction 1 -4.48989e-011 -8.93847e-027   
     length 3.00291   
     axis -180 -30 -90   XYZ
    dof rx
    limits (-10.0 170.0)
  end
  begin
     id 20
     name lwrist
     direction 1 -4.48932e-011 -7.31504e-027   
     length 1.50145   
     axis 5.74121e-015 90 90   XYZ
    dof ry
    limits (-180.0 0.0)
 end
  begin
     id 21 
     name lhand
     direction 1 -4.48971e-011 -1.46301e-026   
     length 0.450922   
     axis 9.33524e-015 90 90   XYZ
    dof rx rz
    limits (-90.0 90.0)
           (-45.0 45.0)
  end
  begin
     id 22 
     name lfingers
     direction 1 -4.49039e-011 -2.92602e-026   
     length 0.363545   
     axis 1.86705e-014 90 90   XYZ
    dof rx
    limits (0.0 90.0)
  end
  begin
     id 23
     name lthumb
     direction 0.707107 -6.34941e-011 0.707107   
     length 0.52198   
     axis -90 45 2.85299e-015   XYZ
    dof rx rz
    limits (-45.0 45.0)
           (-45.0 45.0)
  end
  begin
     id 24 
     name rclavicle
     direction -0.825079 0.56158 -0.0622297   
     length 3.39909  
     axis 0 0 0   XYZ 
    dof ry rz
    limits (-10.0 20.0)
           (-20.0 0.0)
  end
  begin
     id 25 
     name rhumerus
     direction -1 -4.48965e-011 1.61691e-027  
     length 4.86725   
     axis -180 30 90   XYZ
    dof rx ry rz
    limits (-90.0 60.0)
           (-90.0 90.0)
           (-90.0 90.0)
  end
  begin
     id 26 
     name rradius
     direction -1 -4.48964e-011 -2.25776e-027   
     length 3.17144   
     axis -180 30 90   XYZ
    dof rx
    limits (-10.0 170.0)
  end
  begin
     id 27 
     name rwrist
     direction -1 -4.48961e-011 -7.31504e-027   
     length 1.58572   
     axis 5.74121e-015 -90 -90   XYZ
    dof ry
    limits (-180.0 0.0)
  end
  begin
     id 28
     name rhand
     direction -1 -4.49013e-011 -1.46301e-026   
     length 0.419368   
     axis 9.33524e-015 -90 -90   XYZ
    dof rx rz
    limits (-90.0 90.0)
           (-45.0 45.0)
  end
  begin
     id 29
     name rfingers
     direction -1 -4.489e-011 -2.92602e-026   
     length 0.338105   
     axis 1.86705e-014 -90 -90   XYZ
    dof rx
    limits (0.0 90.0)
  end
  begin
     id 30
     name rthumb
     direction -0.707107 -6.35022e-011 0.707107   
     length 0.485453   
     axis -90 -45 -2.85299e-015   XYZ
    dof rx rz
    limits (-45.0 45.0)
           (-45.0 45.0)
  end
:hierarchy
  begin
    root lhipjoint rhipjoint lowerback
    lhipjoint lfemur
    lfemur ltibia
    ltibia lfoot
    lfoot ltoes
    rhipjoint rfemur
    rfemur rtibia
    rtibia rfoot
    rfoot rtoes
    lowerback upperback
    upperback thorax
    thorax lowerneck lclavicle rclavicle
    lowerneck upperneck
    upperneck head
    lclavicle lhumerus
    lhumerus lradius
    lradius lwrist
    lwrist lhand lthumb
    lhand lfingers
    rclavicle rhumerus
    rhumerus rradius
    rradius rwrist
    rwrist rhand rthumb
    rhand rfingers
  end

#!OML:ASF H:\Swim 2\Project 1\Capture day 1\Session 1\male.ASF
:FULLY-SPECIFIED
:DEGREES
236
root 1.12203 14.8884 11.578 100.759 -53.5172 4.18531
lowerback -17.9396 6.05543 12.8991
upperback -12.9343 6.06804 -12.7027
thorax -0.998118 1.92229 -20.3397
lowerneck -19.9794 -0.968086 6.22318
upperneck 41.4911 -9.55616 9.62933
head 20.2027 -1.52944 1.49226
rclavicle 0 1.28415e-013
rhumerus 55.3313 -30.3066 -15.124
rradius 32.9582
rwrist -38.7952
rhand 45.0983 -9.82815
rfingers 7.12502
rthumb 66.4617 -14.3667
lclavicle 0 1.28415e-013
lhumerus 96.4762 21.2075 12.6783
lradius 30.0277
lwrist 29.978
lhand 34.8529 -4.6242
lfingers 7.12502
lthumb 58.009 11.0891
rfemur -47.4478 -3.57182 28.883
rtibia 74.9904
rfoot 34.4001 -3.54757
rtoes 43.6486
lfemur -47.8315 11.2207 -23.4901
ltibia 80.1093
lfoot 29.3572 -1.60135
ltoes 41.0904
237
root 1.12539 14.8904 11.5955 101.038 -53.5193 4.18308
lowerback -17.8926 6.01633 13.2197
upperback -12.5582 5.9987 -12.7146
thorax -0.617489 1.94266 -20.5599
lowerneck -19.8244 -0.787793 6.18309
upperneck 41.9541 -9.4621 9.83916
head 20.5059 -1.46256 1.6555
rclavicle 1.59028e-015 -4.96962e-014
rhumerus 58.046 -29.8239 -18.0611
rradius 32.7001
rwrist -38.8969
rhand 45.1377 -10.3906
rfingers 7.12502
rthumb 66.4917 -14.8704
lclavicle 1.59028e-015 -4.96962e-014
lhumerus 97.4341 19.9382 13.4588
lradius 30.4766
lwrist 31.0999
lhand 33.668 -5.27797
lfingers 7.12502
lthumb 56.971 11.3322
rfemur -47.3485 -3.12593 28.8295
rtibia 72.7502
rfoot 34.8243 -3.5532
rtoes 43.2917
lfemur -47.9456 10.924 -23.5622
ltibia 78.201
lfoot 29.3743 -1.17682
ltoes 41.5915
238
root 1.12861 14.8991 11.6145 101.266 -53.5057 4.15826
lowerback -17.8193 5.99405 13.5047
upperback -12.1391 5.96462 -12.7056
thorax -0.195782 1.99621 -20.722
lowerneck -19.6308 -0.645475 6.12875
upperneck 42.3654 -9.40638 10.0553
head 20.7711 -1.4161 1.8166
rclavicle 1.27222e-014 -7.51406e-014
rhumerus 60.4684 -29.1939 -20.7915
rradius 32.4722
rwrist -38.972
rhand 45.1491 -11.0727
rfingers 7.12502
rthumb 66.5004 -15.5354
lclavicle 1.27222e-014 -7.51406e-014
lhumerus 98.1578 18.6122 14.0832
lradius 31.0166
lwrist 32.7505
lhand 32.0197 -5.67223
lfingers 7.12502
lthumb 55.513 12.0887
rfemur -47.2186 -2.67125 28.7708
rtibia 70.3763
rfoot 35.2774 -3.49866
rtoes 42.9793
lfemur -48.0388 10.5953 -23.61
ltibia 76.1948
lfoot 29.3319 -0.862212
ltoes 41.8199
239
root 1.1312 14.9141 11.6354 101.445 -53.4773 4.10478
lowerback -17.6987 5.98299 13.7531
upperback -11.6848 5.95971 -12.6704
thorax 0.244844 2.07624 -20.8229
lowerneck -19.4019 -0.534471 6.07349
upperneck 42.6785 -9.36208 10.2571
head 20.9578 -1.38146 1.96411
rclavicle 1.82882e-014 -3.77691e-014
rhumerus 62.6267 -28.4713 -23.322
rradius 32.2613
rwrist -38.9281
rhand 44.8899 -11.8864
rfingers 7.12502
rthumb 66.3028 -16.7332
lclavicle 1.82882e-014 -3.77691e-014
lhumerus 98.7005 17.2317 14.6416
lradius 31.5861
lwrist 34.6747
lhand 29.8385 -5.64561
lfingers 7.12502
lthumb 53.5617 13.4845
rfemur -47.0563 -2.20806 28.7053
rtibia 67.8777
rfoot 35.7606 -3.36042
rtoes 42.6514
lfemur -48.1085 10.2309 -23.6267
ltibia 74.0947
lfoot 29.2421 -0.687631
ltoes 41.7101
240
root 1.13292 14.9343 11.6581 101.589 -53.4408 4.02534
lowerback -17.5226 5.98162 13.9593
upperback -11.2125 5.98244 -12.6129
thorax 0.681319 2.17719 -20.8661
lowerneck -19.1404 -0.450256 6.03389
upperneck 42.861 -9.31401 10.4328
head 21.0357 -1.35199 2.08806
rclavicle -2.3059e-014 -1.27222e-014
rhumerus 64.5143 -27.6977 -25.6306
rradius 32.0536
rwrist -38.7083
rhand 44.09 -12.6607
rfingers 7.12502
rthumb 65.6862 -18.652
lclavicle -2.3059e-014 -1.27222e-014
lhumerus 99.0528 15.8426 15.0223
lradius 32.2309
lwrist 36.9583
lhand 26.872 -4.90515
lfingers 7.12502
lthumb 50.874 15.8463
rfemur -46.8756 -1.73781 28.6249
rtibia 65.267
rfoot 36.264 -3.19896
rtoes 42.3057
lfemur -48.1664 9.81609 -23.6074
ltibia 71.9089
lfoot 29.1353 -0.581385
ltoes 41.4874
241
root 1.13385 14.9585 11.6828 101.715 -53.3947 3.92355
lowerback -17.289 5.98469 14.1255
upperback -10.7424 6.02357 -12.5305
thorax 1.08646 2.28799 -20.8535
lowerneck -18.8794 -0.380887 6.04202
upperneck 42.9375 -9.24478 10.5363
head 21.0216 -1.31841 2.16267
rclavicle 6.20208e-014 -8.94531e-014
rhumerus 66.1431 -26.8975 -27.6954
rradius 31.8394
rwrist -38.2907
rhand 42.5201 -13.3515
rfingers 7.12502
rthumb 64.4484 -21.4207
lclavicle 6.20208e-014 -8.94531e-014
lhumerus 99.2124 14.5096 15.1485
lradius 32.9019
lwrist 39.3186
lhand 23.3407 -3.92831
lfingers 7.12502
lthumb 47.6335 18.4537
rfemur -46.6926 -1.2589 28.5303
rtibia 62.5606
rfoot 36.7786 -3.05436
rtoes 42.0094
lfemur -48.231 9.34546 -23.5466
ltibia 69.6483
lfoot 29.0379 -0.517409
ltoes 41.2193
242
root 1.13452 14.985 11.7091 101.841 -53.3445 3.80373
lowerback -17.0085 5.98425 14.2748
upperback -10.2907 6.06539 -12.4232
thorax 1.44221 2.39344 -20.8046
lowerneck -18.62 -0.311975 6.04793
upperneck 42.9051 -9.12156 10.5905
head 20.9159 -1.27415 2.21489
rclavicle 1.51076e-014 5.06901e-014
rhumerus 67.557 -26.0723 -29.5278
rradius 31.5901
rwrist -37.6575
rhand 40.1039 -13.8254
rfingers 7.12502
rthumb 62.4813 -24.7068
lclavicle 1.51076e-014 5.06901e-014
lhumerus 99.1862 13.2822 14.9993
lradius 33.5056
lwrist 41.4506
lhand 19.5484 -3.13857
lfingers 7.12502
lthumb 44.1142 20.7016
rfemur -46.5245 -0.774469 28.4165
rtibia 59.7831
rfoot 37.2827 -2.94639
rtoes 41.7664
lfemur -48.3189 8.81666 -23.449
ltibia 67.3276
lfoot 28.9637 -0.479316
ltoes 40.9415
243
root 1.13551 15.0122 11.7365 101.978 -53.2891 3.66704
lowerback -16.697 5.97851 14.4218
upperback -9.86296 6.10054 -12.2903
thorax 1.74822 2.48781 -20.7284
lowerneck -18.3862 -0.239834 6.04712
upperneck 42.7997 -8.93258 10.56
head 20.7479 -1.21713 2.23227
rclavicle 6.52014e-014 -9.52179e-014
rhumerus 68.7626 -25.2325 -31.1057
rradius 31.2998
rwrist -36.8157
rhand 36.8389 -13.9268
rfingers 7.12502
rthumb 59.7271 -27.9904
lclavicle 6.52014e-014 -9.52179e-014
lhumerus 98.9773 12.2105 14.5316
lradius 33.9919
lwrist 43.0251
lhand 15.5013 -2.7161
lfingers 7.12502
lthumb 40.3233 22.4116
rfemur -46.3779 -0.287543 28.2873
rtibia 56.9644
rfoot 37.7477 -2.90896
rtoes 41.6292
lfemur -48.4371 8.2408 -23.3146
ltibia 64.9636
lfoot 28.9352 -0.471673
ltoes 40.7026
244
root 1.13716 15.0383 11.7638 102.129 -53.2288 3.50856
lowerback -16.365 5.96242 14.5712
upperback -9.46281 6.1196 -12.1352
thorax 2.00274 2.56492 -20.6344
lowerneck -18.1757 -0.160171 6.01374
upperneck 42.628 -8.67742 10.4721
head 20.5288 -1.14833 2.23453
rclavicle 3.33958e-014 2.00773e-014
rhumerus 69.7942 -24.3731 -32.4382
rradius 30.9653
rwrist -35.7873
rhand 32.9165 -13.8467
rfingers 7.12502
rthumb 56.3082 -30.9948
lclavicle 3.33958e-014 2.00773e-014
lhumerus 98.5892 11.315 13.7259
lradius 34.3184
lwrist 43.7512
lhand 11.1818 -2.86357
lfingers 7.12502
lthumb 36.2463 23.392
rfemur -46.2506 0.200715 28.1536
rtibia 54.1421
rfoot 38.1425 -2.89478
rtoes 41.5381
lfemur -48.5758 7.64016 -23.1456
ltibia 62.5752
lfoot 28.9529 -0.487314
ltoes 40.5438
245
root 1.13999 15.062 11.7901 102.295 -53.1725 3.31552
lowerback -16.0319 5.93771 14.7274
upperback -9.08912 6.12232 -11.9701
thorax 2.21922 2.62583 -20.5387
lowerneck -17.971 -0.0775811 5.92957
upperneck 42.3991 -8.36872 10.3491
head 20.2673 -1.07317 2.23476
rclavicle -1.43125e-014 3.29983e-014
rhumerus 70.6534 -23.4861 -33.5255
rradius 30.5949
rwrist -34.6405
rhand 28.5844 -13.59
rfingers 7.12502
rthumb 52.4299 -33.4368
lclavicle -1.43125e-014 3.29983e-014
lhumerus 98.0638 10.5626 12.6509
lradius 34.4379
lwrist 43.3829
lhand 6.85327 -3.73162
lfingers 7.12502
lthumb 32.136 23.447
rfemur -46.1341 0.675003 28.0181
rtibia 51.3573
rfoot 38.4379 -2.87529
rtoes 41.4543
lfemur -48.7176 7.03937 -22.9598
ltibia 60.1828
lfoot 29.0104 -0.512604
ltoes 40.4991
246
root 1.14421 15.0818 11.8149 102.471 -53.128 3.08076
lowerback -15.7101 5.90544 14.8928
upperback -8.7378 6.10903 -11.8069
thorax 2.41089 2.67246 -20.4565
lowerneck -17.7849 -0.00882718 5.782
upperneck 42.1523 -8.05087 10.2133
head 20.0029 -1.00566 2.2405
rclavicle 8.90555e-014 7.89175e-014
rhumerus 71.3496 -22.5722 -34.384
rradius 30.2094
rwrist -33.4688
rhand 24.2471 -13.0917
rfingers 7.12502
rthumb 48.4691 -35.0826
lclavicle 8.90555e-014 7.89175e-014
lhumerus 97.4209 9.9304 11.3565
lradius 34.372
lwrist 41.941
lhand 2.44998 -5.23293
lfingers 7.12502
lthumb 27.9349 22.709
rfemur -46.0117 1.11954 27.8855
rtibia 48.6532
rfoot 38.5867 -2.86818
rtoes 41.4318
lfemur -48.841 6.46476 -22.7721
ltibia 57.8122
lfoot 29.1052 -0.517509
ltoes 40.6711
247
root 1.14989 15.0968 11.8378 102.648 -53.1064 2.80308
lowerback -15.4132 5.86665 15.0643
upperback -8.40567 6.08056 -11.6575
thorax 2.59034 2.70708 -20.3991
lowerneck -17.556 0.0529633 5.60956
upperneck 41.8019 -7.69506 10.0486
head 19.6559 -0.935704 2.23642
rclavicle -2.06736e-014 9.93923e-016
rhumerus 71.9036 -21.6339 -35.0456
rradius 29.8308
rwrist -32.3422
rhand 20.2171 -12.5716
rfingers 7.12502
rthumb 44.7373 -36.1739
lclavicle -2.06736e-014 9.93923e-016
lhumerus 96.7126 9.36584 9.98986
lradius 34.1382
lwrist 39.5165
lhand -2.01616 -7.0284
lfingers 7.12502
lthumb 23.6579 21.5359
rfemur -45.8711 1.50811 27.7595
rtibia 46.0744
rfoot 38.5576 -2.90719
rtoes 41.4567
lfemur -48.9291 5.93087 -22.6018
ltibia 55.4935
lfoot 29.2253 -0.47734
ltoes 41.0916
248
root 1.15697 15.1065 11.859 102.818 -53.1121 2.49584
lowerback -15.1594 5.83082 15.231
upperback -8.09075 6.05016 -11.5328
thorax 2.77613 2.73936 -20.3676
lowerneck -17.3524 0.0815773 5.41687
upperneck 41.4455 -7.38542 9.87601
head 19.3234 -0.885632 2.22302
rclavicle 2.22639e-014 3.20043e-014
rhumerus 72.2602 -20.6891 -35.4434
rradius 29.5334
rwrist -31.3969
rhand 16.6364 -12.1371
rfingers 7.12502
rthumb 41.3897 -36.9283
lclavicle 2.22639e-014 3.20043e-014
lhumerus 95.9937 8.83751 8.65495
lradius 33.8427
lwrist 36.5566
lhand -6.47793 -8.67134
lfingers 7.12502
lthumb 19.3729 20.3836
rfemur -45.7141 1.80527 27.6528
rtibia 43.6672
rfoot 38.3657 -3.02642
rtoes 41.5117
lfemur -48.9833 5.4435 -22.4578
ltibia 53.2666
lfoot 29.3833 -0.314855
ltoes 41.9849
249
root 1.16583 15.1107 11.8788 102.964 -53.1393 2.18574
lowerback -14.9575 5.80033 15.3892
upperback -7.79133 6.02073 -11.4331
thorax 2.97576 2.77202 -20.3582
lowerneck -17.178 0.0734962 5.2402
upperneck 41.082 -7.13607 9.68469
head 19.0044 -0.8566 2.18622
rclavicle 2.22639e-014 -2.98177e-015
rhumerus 72.3895 -19.7525 -35.5122
rradius 29.3722
rwrist -30.7353
rhand 13.5519 -11.8385
rfingers 7.12502
rthumb 38.4868 -37.5036
lclavicle 2.22639e-014 -2.98177e-015
lhumerus 95.3218 8.31944 7.47971
lradius 33.5414
lwrist 33.4547
lhand -10.6721 -9.95916
lfingers 7.12502
lthumb 15.3363 19.4521
rfemur -45.5489 1.98931 27.5829
rtibia 41.482
rfoot 38.0183 -3.24656
rtoes 41.5996
lfemur -49.011 5.0032 -22.3415
ltibia 51.1764
lfoot 29.5945 -0.0164649
ltoes 43.3932
